<mxfile host="app.diagrams.net" modified="2022-01-22T15:00:33.184Z" agent="5.0 (Windows NT 10.0; Win64; x64) AppleWebKit/537.36 (KHTML, like Gecko) Chrome/97.0.4692.71 Safari/537.36" etag="qUtk9leU6rHzur1Vsye8" version="16.4.5" type="github">
  <diagram id="u1TdlP37AF8NgKS2AxjU" name="Page-1">
    <mxGraphModel dx="1054" dy="579" grid="0" gridSize="10" guides="1" tooltips="1" connect="1" arrows="1" fold="1" page="1" pageScale="1" pageWidth="850" pageHeight="1100" math="0" shadow="0">
      <root>
        <mxCell id="0" />
        <mxCell id="1" parent="0" />
        <mxCell id="vAh6UUQLaRG0RZP6ngGp-22" value="" style="rounded=0;whiteSpace=wrap;html=1;fontSize=17;fillColor=#dae8fc;strokeColor=#6c8ebf;" vertex="1" parent="1">
          <mxGeometry x="144" y="217" width="318" height="60" as="geometry" />
        </mxCell>
        <mxCell id="vAh6UUQLaRG0RZP6ngGp-21" value="" style="rounded=0;whiteSpace=wrap;html=1;fontSize=17;fillColor=#dae8fc;strokeColor=#6c8ebf;" vertex="1" parent="1">
          <mxGeometry x="133" y="228" width="318" height="60" as="geometry" />
        </mxCell>
        <mxCell id="vAh6UUQLaRG0RZP6ngGp-9" value="" style="rounded=0;whiteSpace=wrap;html=1;fillColor=#fff2cc;strokeColor=#d6b656;" vertex="1" parent="1">
          <mxGeometry x="382" y="340" width="80" height="40" as="geometry" />
        </mxCell>
        <mxCell id="vAh6UUQLaRG0RZP6ngGp-8" value="" style="rounded=0;whiteSpace=wrap;html=1;fillColor=#fff2cc;strokeColor=#d6b656;" vertex="1" parent="1">
          <mxGeometry x="371" y="350" width="80" height="40" as="geometry" />
        </mxCell>
        <mxCell id="vAh6UUQLaRG0RZP6ngGp-7" value="" style="rounded=0;whiteSpace=wrap;html=1;fillColor=#fff2cc;strokeColor=#d6b656;" vertex="1" parent="1">
          <mxGeometry x="263" y="339" width="80" height="40" as="geometry" />
        </mxCell>
        <mxCell id="vAh6UUQLaRG0RZP6ngGp-6" value="" style="rounded=0;whiteSpace=wrap;html=1;fillColor=#fff2cc;strokeColor=#d6b656;" vertex="1" parent="1">
          <mxGeometry x="250" y="349" width="80" height="40" as="geometry" />
        </mxCell>
        <mxCell id="vAh6UUQLaRG0RZP6ngGp-5" value="" style="rounded=0;whiteSpace=wrap;html=1;fillColor=#fff2cc;strokeColor=#d6b656;" vertex="1" parent="1">
          <mxGeometry x="141" y="338" width="80" height="40" as="geometry" />
        </mxCell>
        <mxCell id="vAh6UUQLaRG0RZP6ngGp-4" value="" style="rounded=0;whiteSpace=wrap;html=1;fillColor=#fff2cc;strokeColor=#d6b656;" vertex="1" parent="1">
          <mxGeometry x="130" y="349" width="80" height="40" as="geometry" />
        </mxCell>
        <mxCell id="vAh6UUQLaRG0RZP6ngGp-1" value="&lt;font style=&quot;font-size: 17px&quot;&gt;Linear&lt;/font&gt;" style="rounded=0;whiteSpace=wrap;html=1;fillColor=#ffff88;strokeColor=#36393d;" vertex="1" parent="1">
          <mxGeometry x="120" y="360" width="80" height="40" as="geometry" />
        </mxCell>
        <mxCell id="vAh6UUQLaRG0RZP6ngGp-2" value="&lt;font style=&quot;font-size: 17px&quot;&gt;Linear&lt;/font&gt;" style="rounded=0;whiteSpace=wrap;html=1;fillColor=#ffff88;strokeColor=#36393d;" vertex="1" parent="1">
          <mxGeometry x="242" y="361" width="80" height="40" as="geometry" />
        </mxCell>
        <mxCell id="vAh6UUQLaRG0RZP6ngGp-3" value="&lt;font style=&quot;font-size: 17px&quot;&gt;Linear&lt;/font&gt;" style="rounded=0;whiteSpace=wrap;html=1;fillColor=#ffff88;strokeColor=#36393d;" vertex="1" parent="1">
          <mxGeometry x="362" y="360" width="80" height="40" as="geometry" />
        </mxCell>
        <mxCell id="vAh6UUQLaRG0RZP6ngGp-17" value="" style="edgeStyle=orthogonalEdgeStyle;rounded=0;orthogonalLoop=1;jettySize=auto;html=1;fontSize=17;strokeColor=#09555B;fontColor=#1A1A1A;" edge="1" parent="1" target="vAh6UUQLaRG0RZP6ngGp-3">
          <mxGeometry relative="1" as="geometry">
            <mxPoint x="402" y="440" as="sourcePoint" />
          </mxGeometry>
        </mxCell>
        <mxCell id="vAh6UUQLaRG0RZP6ngGp-10" value="Q&lt;br&gt;word&lt;br&gt;embeddings &lt;br&gt;(of a sentence)" style="text;html=1;strokeColor=none;fillColor=none;align=center;verticalAlign=middle;whiteSpace=wrap;rounded=0;fontSize=17;fontColor=#1A1A1A;" vertex="1" parent="1">
          <mxGeometry x="322" y="454" width="160" height="49" as="geometry" />
        </mxCell>
        <mxCell id="vAh6UUQLaRG0RZP6ngGp-11" value="K&lt;br&gt;label embeddings" style="text;html=1;strokeColor=none;fillColor=none;align=center;verticalAlign=middle;whiteSpace=wrap;rounded=0;fontSize=17;fontColor=#1A1A1A;" vertex="1" parent="1">
          <mxGeometry x="232" y="440" width="100" height="60" as="geometry" />
        </mxCell>
        <mxCell id="vAh6UUQLaRG0RZP6ngGp-13" value="" style="edgeStyle=orthogonalEdgeStyle;rounded=0;orthogonalLoop=1;jettySize=auto;html=1;fontSize=17;strokeColor=#09555B;fontColor=#1A1A1A;" edge="1" parent="1" target="vAh6UUQLaRG0RZP6ngGp-1">
          <mxGeometry relative="1" as="geometry">
            <mxPoint x="160" y="440" as="sourcePoint" />
          </mxGeometry>
        </mxCell>
        <mxCell id="vAh6UUQLaRG0RZP6ngGp-12" value="V&lt;br&gt;label&lt;br&gt;embeddings" style="text;html=1;strokeColor=none;fillColor=none;align=center;verticalAlign=middle;whiteSpace=wrap;rounded=0;fontSize=17;fontColor=#1A1A1A;" vertex="1" parent="1">
          <mxGeometry x="110" y="441" width="100" height="60" as="geometry" />
        </mxCell>
        <mxCell id="vAh6UUQLaRG0RZP6ngGp-14" value="" style="edgeStyle=orthogonalEdgeStyle;rounded=0;orthogonalLoop=1;jettySize=auto;html=1;fontSize=17;strokeColor=#09555B;fontColor=#1A1A1A;" edge="1" parent="1">
          <mxGeometry relative="1" as="geometry">
            <mxPoint x="281" y="441" as="sourcePoint" />
            <mxPoint x="281" y="401" as="targetPoint" />
          </mxGeometry>
        </mxCell>
        <mxCell id="vAh6UUQLaRG0RZP6ngGp-18" value="Scaled dot-product attention" style="rounded=0;whiteSpace=wrap;html=1;fontSize=17;fillColor=#cce5ff;strokeColor=#36393d;" vertex="1" parent="1">
          <mxGeometry x="122" y="240" width="318" height="60" as="geometry" />
        </mxCell>
        <mxCell id="vAh6UUQLaRG0RZP6ngGp-23" value="Concat" style="rounded=0;whiteSpace=wrap;html=1;fontSize=17;fillColor=#cdeb8b;strokeColor=#36393d;" vertex="1" parent="1">
          <mxGeometry x="200" y="144" width="160" height="40" as="geometry" />
        </mxCell>
        <mxCell id="vAh6UUQLaRG0RZP6ngGp-24" value="Linear" style="rounded=0;whiteSpace=wrap;html=1;fontSize=17;fillColor=#ffff88;strokeColor=#36393d;" vertex="1" parent="1">
          <mxGeometry x="200" y="79" width="160" height="40" as="geometry" />
        </mxCell>
        <mxCell id="vAh6UUQLaRG0RZP6ngGp-25" value="" style="endArrow=classic;html=1;rounded=0;fontSize=17;exitX=0.5;exitY=0;exitDx=0;exitDy=0;entryX=0.116;entryY=1.01;entryDx=0;entryDy=0;entryPerimeter=0;strokeColor=#09555B;fontColor=#1A1A1A;" edge="1" parent="1" source="vAh6UUQLaRG0RZP6ngGp-1" target="vAh6UUQLaRG0RZP6ngGp-18">
          <mxGeometry width="50" height="50" relative="1" as="geometry">
            <mxPoint x="150" y="350" as="sourcePoint" />
            <mxPoint x="150" y="310" as="targetPoint" />
          </mxGeometry>
        </mxCell>
        <mxCell id="vAh6UUQLaRG0RZP6ngGp-26" value="VW&lt;sup&gt;V&lt;/sup&gt;&lt;sub&gt;i&lt;/sub&gt;" style="text;html=1;strokeColor=none;fillColor=none;align=center;verticalAlign=middle;whiteSpace=wrap;rounded=0;fontSize=17;fontColor=#1A1A1A;" vertex="1" parent="1">
          <mxGeometry x="84" y="310" width="60" height="30" as="geometry" />
        </mxCell>
        <mxCell id="vAh6UUQLaRG0RZP6ngGp-27" value="" style="endArrow=classic;html=1;rounded=0;fontSize=17;exitX=0.5;exitY=0;exitDx=0;exitDy=0;strokeColor=#09555B;fontColor=#1A1A1A;" edge="1" parent="1" source="vAh6UUQLaRG0RZP6ngGp-18" target="vAh6UUQLaRG0RZP6ngGp-23">
          <mxGeometry width="50" height="50" relative="1" as="geometry">
            <mxPoint x="280" y="230" as="sourcePoint" />
            <mxPoint x="330" y="180" as="targetPoint" />
          </mxGeometry>
        </mxCell>
        <mxCell id="vAh6UUQLaRG0RZP6ngGp-30" value="" style="endArrow=classic;html=1;rounded=0;fontSize=17;exitX=0.5;exitY=0;exitDx=0;exitDy=0;entryX=0.5;entryY=1;entryDx=0;entryDy=0;strokeColor=#09555B;fontColor=#1A1A1A;" edge="1" parent="1" source="vAh6UUQLaRG0RZP6ngGp-23" target="vAh6UUQLaRG0RZP6ngGp-24">
          <mxGeometry width="50" height="50" relative="1" as="geometry">
            <mxPoint x="280" y="170" as="sourcePoint" />
            <mxPoint x="330" y="120" as="targetPoint" />
          </mxGeometry>
        </mxCell>
        <mxCell id="vAh6UUQLaRG0RZP6ngGp-33" value="" style="endArrow=classic;html=1;rounded=0;fontSize=17;entryX=0.75;entryY=1;entryDx=0;entryDy=0;dashed=1;strokeColor=#09555B;fontColor=#1A1A1A;" edge="1" parent="1" target="vAh6UUQLaRG0RZP6ngGp-23">
          <mxGeometry width="50" height="50" relative="1" as="geometry">
            <mxPoint x="320" y="220" as="sourcePoint" />
            <mxPoint x="370" y="180" as="targetPoint" />
          </mxGeometry>
        </mxCell>
        <mxCell id="vAh6UUQLaRG0RZP6ngGp-36" value="" style="endArrow=classic;html=1;rounded=0;fontSize=17;exitX=0.5;exitY=0;exitDx=0;exitDy=0;entryX=0.116;entryY=1.01;entryDx=0;entryDy=0;entryPerimeter=0;strokeColor=#09555B;fontColor=#1A1A1A;" edge="1" parent="1">
          <mxGeometry width="50" height="50" relative="1" as="geometry">
            <mxPoint x="283" y="360" as="sourcePoint" />
            <mxPoint x="281.8879999999999" y="300.6" as="targetPoint" />
          </mxGeometry>
        </mxCell>
        <mxCell id="vAh6UUQLaRG0RZP6ngGp-37" value="" style="endArrow=classic;html=1;rounded=0;fontSize=17;exitX=0.5;exitY=0;exitDx=0;exitDy=0;entryX=0.116;entryY=1.01;entryDx=0;entryDy=0;entryPerimeter=0;strokeColor=#09555B;fontColor=#1A1A1A;" edge="1" parent="1">
          <mxGeometry width="50" height="50" relative="1" as="geometry">
            <mxPoint x="401" y="360" as="sourcePoint" />
            <mxPoint x="399.8879999999999" y="300.6" as="targetPoint" />
          </mxGeometry>
        </mxCell>
        <mxCell id="vAh6UUQLaRG0RZP6ngGp-41" value="" style="endArrow=classic;html=1;rounded=0;dashed=1;fontSize=17;entryX=0.623;entryY=1.055;entryDx=0;entryDy=0;entryPerimeter=0;strokeColor=#09555B;fontColor=#1A1A1A;" edge="1" parent="1">
          <mxGeometry width="50" height="50" relative="1" as="geometry">
            <mxPoint x="300" y="229" as="sourcePoint" />
            <mxPoint x="299.68000000000006" y="185.20000000000005" as="targetPoint" />
          </mxGeometry>
        </mxCell>
        <mxCell id="vAh6UUQLaRG0RZP6ngGp-49" value="KW&lt;sup&gt;K&lt;/sup&gt;&lt;sub&gt;i&lt;/sub&gt;" style="text;html=1;strokeColor=none;fillColor=none;align=center;verticalAlign=middle;whiteSpace=wrap;rounded=0;fontSize=17;fontColor=#1A1A1A;" vertex="1" parent="1">
          <mxGeometry x="225" y="312" width="60" height="30" as="geometry" />
        </mxCell>
        <mxCell id="vAh6UUQLaRG0RZP6ngGp-50" value="QW&lt;sup&gt;Q&lt;/sup&gt;&lt;sub&gt;i&lt;/sub&gt;" style="text;html=1;strokeColor=none;fillColor=none;align=center;verticalAlign=middle;whiteSpace=wrap;rounded=0;fontSize=17;fontColor=#1A1A1A;" vertex="1" parent="1">
          <mxGeometry x="347" y="313" width="60" height="30" as="geometry" />
        </mxCell>
        <mxCell id="vAh6UUQLaRG0RZP6ngGp-51" value="P=P&#39;W&lt;sup&gt;O&lt;/sup&gt;" style="text;html=1;strokeColor=none;fillColor=none;align=center;verticalAlign=middle;whiteSpace=wrap;rounded=0;fontSize=17;fontColor=#1A1A1A;" vertex="1" parent="1">
          <mxGeometry x="211" y="46" width="60" height="30" as="geometry" />
        </mxCell>
        <mxCell id="vAh6UUQLaRG0RZP6ngGp-52" value="" style="endArrow=classic;html=1;rounded=0;fontSize=17;exitX=0.5;exitY=0;exitDx=0;exitDy=0;strokeColor=#09555B;fontColor=#1A1A1A;" edge="1" parent="1">
          <mxGeometry width="50" height="50" relative="1" as="geometry">
            <mxPoint x="282" y="79" as="sourcePoint" />
            <mxPoint x="282" y="40" as="targetPoint" />
          </mxGeometry>
        </mxCell>
        <mxCell id="vAh6UUQLaRG0RZP6ngGp-53" value="P&#39;" style="text;html=1;strokeColor=none;fillColor=none;align=center;verticalAlign=middle;whiteSpace=wrap;rounded=0;fontSize=17;fontColor=#1A1A1A;" vertex="1" parent="1">
          <mxGeometry x="212" y="116" width="60" height="30" as="geometry" />
        </mxCell>
        <mxCell id="vAh6UUQLaRG0RZP6ngGp-54" value="" style="endArrow=none;dashed=1;html=1;fontColor=#1A1A1A;strokeColor=#09555B;entryX=0.75;entryY=1;entryDx=0;entryDy=0;" edge="1" parent="1">
          <mxGeometry width="50" height="50" relative="1" as="geometry">
            <mxPoint x="404" y="414" as="sourcePoint" />
            <mxPoint x="421" y="400" as="targetPoint" />
          </mxGeometry>
        </mxCell>
        <mxCell id="vAh6UUQLaRG0RZP6ngGp-56" value="" style="endArrow=none;dashed=1;html=1;fontColor=#1A1A1A;strokeColor=#09555B;entryX=0.75;entryY=1;entryDx=0;entryDy=0;" edge="1" parent="1">
          <mxGeometry width="50" height="50" relative="1" as="geometry">
            <mxPoint x="282" y="415" as="sourcePoint" />
            <mxPoint x="299" y="401" as="targetPoint" />
          </mxGeometry>
        </mxCell>
        <mxCell id="vAh6UUQLaRG0RZP6ngGp-57" value="" style="endArrow=none;dashed=1;html=1;fontColor=#1A1A1A;strokeColor=#09555B;entryX=0.75;entryY=1;entryDx=0;entryDy=0;" edge="1" parent="1">
          <mxGeometry width="50" height="50" relative="1" as="geometry">
            <mxPoint x="160" y="414" as="sourcePoint" />
            <mxPoint x="177" y="400" as="targetPoint" />
          </mxGeometry>
        </mxCell>
        <mxCell id="vAh6UUQLaRG0RZP6ngGp-64" value="" style="endArrow=none;dashed=1;html=1;fontColor=#1A1A1A;strokeColor=#09555B;entryX=0.161;entryY=1.023;entryDx=0;entryDy=0;entryPerimeter=0;" edge="1" parent="1">
          <mxGeometry width="50" height="50" relative="1" as="geometry">
            <mxPoint x="411" y="350" as="sourcePoint" />
            <mxPoint x="411.1980000000001" y="301.38" as="targetPoint" />
          </mxGeometry>
        </mxCell>
        <mxCell id="vAh6UUQLaRG0RZP6ngGp-65" value="" style="endArrow=none;dashed=1;html=1;fontColor=#1A1A1A;strokeColor=#09555B;entryX=0.158;entryY=1.01;entryDx=0;entryDy=0;entryPerimeter=0;" edge="1" parent="1" target="vAh6UUQLaRG0RZP6ngGp-18">
          <mxGeometry width="50" height="50" relative="1" as="geometry">
            <mxPoint x="174" y="348" as="sourcePoint" />
            <mxPoint x="224" y="298" as="targetPoint" />
          </mxGeometry>
        </mxCell>
        <mxCell id="vAh6UUQLaRG0RZP6ngGp-66" value="" style="endArrow=none;dashed=1;html=1;fontColor=#1A1A1A;strokeColor=#09555B;entryX=0.158;entryY=1.01;entryDx=0;entryDy=0;entryPerimeter=0;" edge="1" parent="1">
          <mxGeometry width="50" height="50" relative="1" as="geometry">
            <mxPoint x="296" y="349" as="sourcePoint" />
            <mxPoint x="294.2439999999999" y="301.6" as="targetPoint" />
          </mxGeometry>
        </mxCell>
        <mxCell id="vAh6UUQLaRG0RZP6ngGp-67" value="" style="endArrow=none;dashed=1;html=1;fontColor=#1A1A1A;strokeColor=#09555B;" edge="1" parent="1">
          <mxGeometry width="50" height="50" relative="1" as="geometry">
            <mxPoint x="186" y="336" as="sourcePoint" />
            <mxPoint x="186" y="301" as="targetPoint" />
          </mxGeometry>
        </mxCell>
        <mxCell id="vAh6UUQLaRG0RZP6ngGp-68" value="" style="endArrow=none;dashed=1;html=1;fontColor=#1A1A1A;strokeColor=#09555B;" edge="1" parent="1">
          <mxGeometry width="50" height="50" relative="1" as="geometry">
            <mxPoint x="307" y="336" as="sourcePoint" />
            <mxPoint x="307" y="301" as="targetPoint" />
          </mxGeometry>
        </mxCell>
        <mxCell id="vAh6UUQLaRG0RZP6ngGp-69" value="" style="endArrow=none;dashed=1;html=1;fontColor=#1A1A1A;strokeColor=#09555B;" edge="1" parent="1">
          <mxGeometry width="50" height="50" relative="1" as="geometry">
            <mxPoint x="423" y="338" as="sourcePoint" />
            <mxPoint x="423" y="303" as="targetPoint" />
          </mxGeometry>
        </mxCell>
      </root>
    </mxGraphModel>
  </diagram>
</mxfile>
